HIERARCHY
ROOT hip
{
  OFFSET 0 0 0
  CHANNELS 6 Xposition Yposition Zposition Zrotation Yrotation Xrotation
  JOINT abdomen
  {
    OFFSET 0 20.6881 -0.73152
    CHANNELS 3 Zrotation Xrotation Yrotation
    JOINT chest
    {
      OFFSET 0 11.7043 -0.48768
      CHANNELS 3 Zrotation Xrotation Yrotation
      JOINT neck
      {
        OFFSET 0 22.1894 -2.19456
        CHANNELS 3 Zrotation Xrotation Yrotation
        JOINT head
        {
          OFFSET -0.24384 7.07133 1.2192
          CHANNELS 3 Zrotation Xrotation Yrotation
          JOINT leftEye
          {
            OFFSET 4.14528 8.04674 8.04672
            CHANNELS 3 Zrotation Xrotation Yrotation
            End Site
            {
              OFFSET 1 0 0
            }
          }
          JOINT rightEye
          {
            OFFSET -3.6576 8.04674 8.04672
            CHANNELS 3 Zrotation Xrotation Yrotation
            End Site
            {
              OFFSET 1 0 0
            }
          }
        }
      }
      JOINT rCollar
      {
        OFFSET -2.68224 19.2634 -4.8768
        CHANNELS 3 Zrotation Xrotation Yrotation
        JOINT rShldr
        {
          OFFSET -8.77824 -1.95073 1.46304
          CHANNELS 3 Zrotation Xrotation Yrotation
          JOINT rForeArm
          {
            OFFSET -28.1742 -1.7115 0.48768
            CHANNELS 3 Zrotation Xrotation Yrotation
            JOINT rHand
            {
              OFFSET -22.5879 0.773209 7.07136
              CHANNELS 3 Zrotation Xrotation Yrotation
              JOINT rThumb1
              {
                OFFSET -1.2192 -0.487915 3.41376
                CHANNELS 3 Zrotation Xrotation Yrotation
                JOINT rThumb2
                {
                  OFFSET -3.37035 -0.52449 3.41376
                  CHANNELS 3 Zrotation Xrotation Yrotation
                  End Site
                  {
                    OFFSET -1.78271 -1.18214 1.43049
                  }
                }
              }
              JOINT rIndex1
              {
                OFFSET -7.75947 0.938293 5.60832
                CHANNELS 3 Zrotation Xrotation Yrotation
                JOINT rIndex2
                {
                  OFFSET -2.54057 -0.884171 1.56538
                  CHANNELS 3 Zrotation Xrotation Yrotation
                  End Site
                  {
                    OFFSET -1.62519 -0.234802 1.16502
                  }
                }
              }
              JOINT rMid1
              {
                OFFSET -8.24714 1.18213 3.41376
                CHANNELS 3 Zrotation Xrotation Yrotation
                JOINT rMid2
                {
                  OFFSET -3.10165 -0.590103 1.0647
                  CHANNELS 3 Zrotation Xrotation Yrotation
                  End Site
                  {
                    OFFSET -2.48547 -0.328903 0.83742
                  }
                }
              }
              JOINT rRing1
              {
                OFFSET -8.82822 0.546677 1.51678
                CHANNELS 3 Zrotation Xrotation Yrotation
                JOINT rRing2
                {
                  OFFSET -2.60934 -0.819778 -0.0198488
                  CHANNELS 3 Zrotation Xrotation Yrotation
                  End Site
                  {
                    OFFSET -2.33842 -0.294052 0.168128
                  }
                }
              }
              JOINT rPinky1
              {
                OFFSET -8.27202 -0.0477905 -0.4584
                CHANNELS 3 Zrotation Xrotation Yrotation
                JOINT rPinky2
                {
                  OFFSET -1.82734 -0.647385 -0.700984
                  CHANNELS 3 Zrotation Xrotation Yrotation
                  End Site
                  {
                    OFFSET -1.69225 -0.51767 -0.607171
                  }
                }
              }
            }
          }
        }
      }
      JOINT lCollar
      {
        OFFSET 2.68224 19.2634 -4.8768
        CHANNELS 3 Zrotation Xrotation Yrotation
        JOINT lShldr
        {
          OFFSET 8.77824 -1.95073 1.46304
          CHANNELS 3 Zrotation Xrotation Yrotation
          JOINT lForeArm
          {
            OFFSET 28.1742 -1.7115 0.48768
            CHANNELS 3 Zrotation Xrotation Yrotation
            JOINT lHand
            {
              OFFSET 22.5879 0.773209 7.07136
              CHANNELS 3 Zrotation Xrotation Yrotation
              JOINT lThumb1
              {
                OFFSET 1.2192 -0.487915 3.41376
                CHANNELS 3 Zrotation Xrotation Yrotation
                JOINT lThumb2
                {
                  OFFSET 3.37035 -0.52449 3.41376
                  CHANNELS 3 Zrotation Xrotation Yrotation
                  End Site
                  {
                    OFFSET 1.78271 -1.18214 1.43049
                  }
                }
              }
              JOINT lIndex1
              {
                OFFSET 7.75947 0.938293 5.60832
                CHANNELS 3 Zrotation Xrotation Yrotation
                JOINT lIndex2
                {
                  OFFSET 2.54057 -0.884171 1.56538
                  CHANNELS 3 Zrotation Xrotation Yrotation
                  End Site
                  {
                    OFFSET 1.62519 -0.234802 1.16502
                  }
                }
              }
              JOINT lMid1
              {
                OFFSET 8.24714 1.18213 3.41376
                CHANNELS 3 Zrotation Xrotation Yrotation
                JOINT lMid2
                {
                  OFFSET 3.10165 -0.590103 1.0647
                  CHANNELS 3 Zrotation Xrotation Yrotation
                  End Site
                  {
                    OFFSET 2.48547 -0.328903 0.83742
                  }
                }
              }
              JOINT lRing1
              {
                OFFSET 8.82822 0.546677 1.51678
                CHANNELS 3 Zrotation Xrotation Yrotation
                JOINT lRing2
                {
                  OFFSET 2.60934 -0.819778 -0.0198488
                  CHANNELS 3 Zrotation Xrotation Yrotation
                  End Site
                  {
                    OFFSET 2.33842 -0.294052 0.168128
                  }
                }
              }
              JOINT lPinky1
              {
                OFFSET 8.27202 -0.0477905 -0.4584
                CHANNELS 3 Zrotation Xrotation Yrotation
                JOINT lPinky2
                {
                  OFFSET 1.82734 -0.647385 -0.700984
                  CHANNELS 3 Zrotation Xrotation Yrotation
                  End Site
                  {
                    OFFSET 1.69225 -0.51767 -0.607171
                  }
                }
              }
            }
          }
        }
      }
    }
  }
  JOINT rButtock
  {
    OFFSET -8.77824 4.35084 1.2192
    CHANNELS 3 Zrotation Xrotation Yrotation
    JOINT rThigh
    {
      OFFSET 0 -1.70687 -2.19456
      CHANNELS 3 Zrotation Xrotation Yrotation
      JOINT rShin
      {
        OFFSET 0 -36.8199 0.73152
        CHANNELS 3 Zrotation Xrotation Yrotation
        JOINT rFoot
        {
          OFFSET 0.73152 -45.1104 -5.12064
          CHANNELS 3 Zrotation Xrotation Yrotation
          End Site
          {
            OFFSET -1.1221 -3.69964 12.103
          }
        }
      }
    }
  }
  JOINT lButtock
  {
    OFFSET 8.77824 4.35084 1.2192
    CHANNELS 3 Zrotation Xrotation Yrotation
    JOINT lThigh
    {
      OFFSET 0 -1.70687 -2.19456
      CHANNELS 3 Zrotation Xrotation Yrotation
      JOINT lShin
      {
        OFFSET 0 -36.8199 0.73152
        CHANNELS 3 Zrotation Xrotation Yrotation
        JOINT lFoot
        {
          OFFSET -0.73152 -45.1104 -5.12064
          CHANNELS 3 Zrotation Xrotation Yrotation
          End Site
          {
            OFFSET 1.1221 -3.69964 12.103
          }
        }
      }
    }
  }
}
MOTION
Frames:	6
Frame Time:	0.03333
0.0 0.0 0.0 0.0 0.0 0.0 0.0 0.0 0.0 0.0 0.0 0.0 0.0 0.0 0.0 0.0 0.0 0.0 0.0 0.0 0.0 0.0 0.0 0.0 0.0 0.0 0.0 0.0 0.0 0.0 0.0 0.0 0.0 0.0 0.0 0.0 0.0 0.0 0.0 0.0 0.0 0.0 0.0 0.0 0.0 0.0 0.0 0.0 0.0 0.0 0.0 0.0 0.0 0.0 0.0 0.0 0.0 0.0 0.0 0.0 0.0 0.0 0.0 0.0 0.0 0.0 0.0 0.0 0.0 0.0 0.0 0.0 0.0 0.0 0.0 0.0 0.0 0.0 0.0 0.0 0.0 0.0 0.0 0.0 0.0 0.0 0.0 0.0 0.0 0.0 0.0 0.0 0.0 0.0 0.0 0.0 0.0 0.0 0.0 0.0 0.0 0.0 0.0 0.0 0.0 0.0 0.0 0.0 0.0 0.0 0.0 0.0 0.0 0.0 0.0 0.0 0.0 0.0 0.0 0.0 0.0 0.0 0.0 0.0 0.0 0.0 0.0 0.0 0.0 0.0 0.0 0.0
0.0206 63.4653 -0.2052 -0.21886 50.195122 -1.11859 -3.027439 0.239805 91.811501 -5.390061 -13.145695 146.80904 7.220101 -19.921485 59.146466 35.481726 -23.604359 41.459176 -120.749666 -10.890615 -19.032271 -36.207594 2.840413 -8.673482 76.601422 19.005741 8.769162 10.307953 -44.836015 4.386404 114.228312 72.278912 17.323428 174.541148 -21.409147 28.806069 9.872533 2.812897 43.453627 91.766578 79.627461 126.48153 -72.353097 -27.649744 -33.890511 21.530192 35.448514 -179.93232 -24.385805 -15.523453 -82.314375 -41.227964 -45.969552 -93.208731 -52.824937 -8.533264 -95.299098 -39.138912 57.889985 22.038107 67.331945 -10.972455 -52.690858 -20.960858 63.389606 -4.258394 60.11754 27.953194 -146.1663 156.700867 -6.397175 -171.031651 -53.13799 -83.145959 148.247755 -41.57367 -50.857482 39.640865 -137.21164 -18.107489 -67.81628 -59.173682 -51.774094 176.758383 34.638057 -71.973549 -9.265392 -22.208375 66.645739 -68.540418 14.876243 -16.8757 140.996592 145.654979 -36.730333 -138.958313 -88.396379 6.420474 83.401672 -102.566866 -61.934217 -87.392452 -164.998667 26.764101 57.086859 143.112211 -10.761476 129.922968 53.560131 -0.111551 95.985334 9.732688 53.519359 -15.730529 7.105066 -2.434351 86.291066 -36.66229 -52.732525 144.517865 -42.808368 14.191472 -97.591488 6.386654 41.41335 167.569265 7.259818 -0.453585 98.98897 -76.451931 31.105862 82.705733
1.1942 59.9662 -3.0221999999999998 -3.569045 -18.248347 7.968328 -7.137714 7.439233 54.745625 -1.722843 -11.190637 -48.650998 16.722593 31.886065 101.512004 -39.807081 24.699367 -101.429675 18.180917 -1.078961 -6.735802 98.49462 -16.37647 18.959548 -171.079098 -56.031793 159.426687 -37.923369 -34.205923 -29.547643 -176.226062 1.396124 -109.973755 -3.041471 18.695205 -5.62705 -178.302699 -7.100346 92.63614 -131.515337 1.813345 87.421175 -22.3646 33.033168 16.203565 -174.067348 3.368745 120.364191 -161.877427 -38.061812 160.404524 -145.990999 -44.006218 149.691171 -25.731756 7.623662 23.78469 36.242793 34.457721 -24.339151 -4.283599 -0.362731 2.303512 -123.812634 -45.40912 -112.726966 4.019861 -59.176478 16.683375 -66.460906 24.641223 39.454671 0.30346 22.346194 -59.763806 3.513239 12.310623 5.306716 -179.806532 5.915247 -92.901585 115.54179 27.499936 -39.094317 -174.800212 -32.246284 -112.899862 94.007898 47.357537 -74.734754 -11.120329 -42.262845 8.427468 -8.496787 -30.865398 -17.903967 171.267757 -76.220293 174.147715 40.120636 -18.816756 34.047228 55.202971 -57.255352 57.466112 136.213692 22.458739 164.099622 -78.878825 27.110504 -37.759113 82.152834 0.476425 88.185737 57.341949 16.260606 -71.009759 157.241272 -31.297645 31.283841 -70.01274 76.512557 -94.991781 -178.236905 36.857785 -2.405253 -43.113995 72.376816 -146.951104 131.395876 32.339814 160.342523
2.8105 64.8608 -5.986 -2.751545 -16.465523 8.629668 -7.186467 7.880451 -107.482063 4.370028 9.598191 108.741701 -15.517065 24.536446 -68.547314 37.95721 3.891173 69.198102 -164.675933 -8.748649 -59.245723 -5.59066 -2.329362 45.211647 -133.928061 32.106317 126.478897 -53.547325 23.454106 53.462223 -174.7749 6.236749 -111.301616 -2.963349 26.594615 -2.712532 -174.741191 1.540391 86.881163 -40.254295 -26.549699 5.641219 5.009756 -5.97825 -12.344944 -59.519036 32.70801 22.326032 1.2309 63.592926 -6.804911 168.466194 35.102116 134.085905 -75.430724 38.443313 66.557462 -114.209073 -28.208231 164.77148 22.045483 63.121721 6.613757 -9.415642 -15.825544 -12.595149 4.327744 -15.569872 16.215595 -74.208009 19.484154 5.855847 -178.167485 2.542106 -80.015432 -175.52481 -7.964016 -140.280825 1.627754 -5.463814 -1.802196 101.927733 -4.029802 -100.087994 -18.605435 -53.800055 15.317871 168.587015 -2.390523 -110.36213 170.432679 -6.850993 -156.926029 30.489906 20.138872 -15.15279 148.006737 42.218787 -157.838897 136.033131 24.007156 -149.596428 158.852179 68.326805 165.32072 79.629493 68.076051 -84.887792 -88.08404 48.060864 -39.551225 102.447951 20.80053 -19.576063 -62.658525 27.977969 -35.377734 120.054614 55.570432 -14.027532 91.353021 67.898494 97.524352 -144.508593 22.34413 -112.272763 -78.832106 -24.773176 -115.696543 152.276626 48.371066 141.443873
3.7814 64.4935 -8.3009 -2.326751 -13.090103 6.134969 -8.228356 18.234254 -56.26221 15.742928 -2.497685 63.338539 -21.909384 30.071573 -58.398489 51.878881 6.206302 55.090001 -11.50379 10.172485 -82.929059 -2.975323 -0.383283 14.677711 -141.65091 27.453164 136.567861 155.457698 5.8449 146.532263 150.634917 -13.49753 63.863192 171.949959 4.974035 149.453122 9.124469 -15.887101 7.894005 -7.587858 11.167552 -16.880475 -178.51562 -56.253834 90.332997 123.180158 -14.370526 31.41265 -142.947747 -47.102276 174.332608 -119.044729 -78.0651 175.828136 3.4976 -61.46359 2.927049 165.65836 38.939402 -167.251799 -148.056098 68.171774 -147.662817 83.07996 59.354269 -26.118932 157.969132 -15.357011 -169.25378 -133.611071 -2.103529 171.141265 -159.587993 13.384007 -69.30152 170.812255 10.170486 -142.035614 166.182808 -18.894142 -106.540989 23.274883 -48.643462 21.808345 154.558479 -17.914225 -129.756284 162.562122 14.96377 -98.641726 1.144891 4.861754 0.373332 -162.190766 67.701786 149.397511 125.014316 -32.161909 147.425854 -55.438892 20.388773 28.123885 133.255187 77.254851 -149.231451 -148.704636 -46.329405 -147.600468 46.119577 25.54166 40.923014 -64.233947 -5.896508 -87.948476 -67.340797 37.588168 -18.886247 83.982439 35.391368 19.944756 -98.81526 73.857848 -62.662289 172.051861 10.838653 -55.197493 -71.829232 15.34573 83.969031 53.270838 4.855986 -9.123948
4.6545000000000005 64.938 -10.4395 -2.044993 -5.877381 4.929923 -10.917864 23.350097 13.902501 5.701587 -19.153875 -8.984904 -4.309925 32.194302 68.398701 -40.975032 -29.194542 -83.978291 -17.61865 9.634173 -57.073187 5.639611 -0.219665 -4.457536 -154.346521 5.783363 141.874946 145.450395 -15.391508 172.716865 178.845532 30.113829 75.706071 162.725653 -14.596454 143.273431 -0.617779 -9.792881 5.298506 -16.332578 50.755094 -1.453249 -41.531984 23.016874 63.331694 -167.877556 33.495844 161.990699 -138.409572 -66.307765 177.425375 19.39324 43.972338 18.380268 -3.17681 -52.293072 -5.441685 167.778185 6.639432 178.497893 -74.977641 -65.570587 -84.952681 178.864615 -26.395572 173.466556 -0.354757 -10.920057 8.639146 -76.16588 40.245974 3.316996 15.439215 -11.278199 -76.876648 9.294461 -12.492871 1.822713 173.541059 -47.008972 -107.095037 102.890334 32.061884 -66.923192 149.320449 -72.821198 -152.629026 -27.437915 -22.151781 -12.75323 157.953462 -15.549072 -127.68137 -7.322588 -19.96706 -49.248118 129.716698 -19.578014 146.055381 -44.618017 2.149807 38.466556 -38.269503 87.146493 16.875095 -59.797899 -78.007143 -92.093679 103.300364 66.833359 22.876655 -127.339161 12.30575 95.061949 76.109776 -59.949813 -1.31233 -69.387699 -25.375411 -141.966416 5.969467 -5.375727 6.43427 -5.714078 -67.528027 -161.10569 -55.699131 -78.867195 21.480693 -6.326467 42.664479 113.732477
